<svg width="312" height="973" viewBox="0 0 312 973" fill="none" xmlns="http://www.w3.org/2000/svg">
<path d="M201.064 0.78125C173.46 53.696 145.932 106.687 118.328 159.601C114.385 167.182 110.366 174.99 110.214 183.329C110.062 191.668 114.764 200.69 123.561 203.495C137.818 208.043 150.785 194.777 158.824 183.329C173.536 162.179 188.323 141.028 203.035 119.877C204.173 195.99 204.4 272.178 203.718 348.29C202.808 453.513 200.229 559.57 175.204 662.443C150.179 765.24 101.038 865.762 18.2266 940.51C8.36814 949.38 -2.85537 960.827 1.31553 972.729C37.4128 972.426 66.9882 947.636 89.7386 922.543C165.042 839.608 209.33 736.66 231.17 631.588C253.01 526.517 253.39 418.868 248.157 312.053C244.365 233.515 237.54 155.129 227.757 77.0452C245.199 121.393 273.941 162.179 311.251 195.307C307.308 120.484 266.13 47.8587 200.988 0.78125H201.064ZM160.644 165.59C159.355 164.832 159.355 162.937 160.644 162.179C161.933 162.937 161.933 164.832 160.644 165.59ZM166.407 148.23C165.573 148.23 165.573 146.789 166.407 146.789C167.166 146.865 167.241 148.23 166.407 148.23ZM176.569 141.255C175.962 141.255 175.432 141.028 175.204 140.497C174.218 138.83 177.858 137.162 178.844 138.905C179.527 140.118 177.934 141.255 176.569 141.255ZM193.329 112.145C192.039 111.387 192.039 109.491 193.329 108.733C194.618 109.491 194.618 111.387 193.329 112.145ZM195.3 105.322C194.39 104.791 194.011 103.654 194.39 102.744H194.239C194.39 101.911 196.059 102.138 196.286 102.972C196.514 103.806 195.831 104.64 195.224 105.322H195.3ZM197.196 96.3765C196.817 96.3765 196.438 96.2248 196.362 95.8458C196.362 95.0877 197.954 95.1635 198.03 95.8458C198.03 96.2248 197.575 96.3765 197.196 96.3765ZM201.064 108.582C200.23 108.582 200.23 107.217 201.064 107.141C201.822 107.141 201.898 108.582 201.064 108.582ZM63.8032 938.842C62.059 940.055 59.6323 940.738 58.6464 942.481C57.1297 941.344 57.8122 938.767 59.7081 938.388V938.16C61.2248 936.72 62.8173 935.355 64.4099 933.915C66.4574 934.749 65.6232 937.629 63.8032 938.842ZM227.833 132.462C227.606 133.599 226.317 134.281 225.027 134.281C224.421 134.281 223.89 134.129 223.435 133.75C222.07 132.613 222.601 130.187 224.345 129.657C226.089 129.126 228.212 130.794 227.833 132.386V132.462ZM74.0409 926.865C73.2067 926.865 73.2067 925.424 74.0409 925.424C74.7992 925.5 74.7992 926.865 74.0409 926.865ZM87.4635 916.858V916.706C86.0227 917.843 84.5818 918.98 83.141 920.118C83.141 916.024 87.236 912.309 91.7861 912.158C93.5303 914.053 90.1178 916.327 87.4635 916.858ZM92.8478 909.732C92.3928 909.959 91.862 910.111 91.3311 910.111C90.2694 910.111 89.2836 909.656 88.7527 908.822C89.5869 907.306 91.4069 906.244 93.3028 906.169L93.682 906.017C94.592 907.154 94.137 908.974 92.8478 909.732ZM102.934 899.497C102.024 898.891 101.645 897.83 102.024 896.92H101.948C102.1 896.086 103.768 896.313 103.995 897.147C104.223 897.981 103.616 898.815 103.01 899.497H102.934ZM114.385 887.444C113.096 885.852 111.427 884.563 109.456 883.729C110.062 879.56 112.868 875.769 116.887 873.571C117.115 878.271 116.205 882.971 114.309 887.368L114.385 887.444ZM122.12 873.495C121.286 873.495 121.286 872.055 122.12 872.055C122.954 872.055 122.954 873.495 122.12 873.495ZM123.182 858.94C123.182 858.257 124.774 858.182 124.85 858.94C124.85 859.698 123.257 859.622 123.182 858.94ZM127.049 867.506C127.125 866.824 128.642 866.824 128.718 867.506C128.718 868.264 127.125 868.188 127.049 867.506ZM131.599 859.698C130.234 858.636 130.917 855.983 132.737 856.286H132.888C132.13 854.998 132.888 853.178 134.329 852.723C134.329 855.225 133.419 857.727 131.675 859.698H131.599ZM145.174 828.843C143.809 827.403 143.809 825.053 145.098 823.537H145.249C146.614 825.053 146.539 827.403 145.174 828.843ZM154.88 823.688L154.501 823.537C153.97 825.356 153.44 827.251 152.909 829.071C151.013 825.659 151.923 821.187 154.956 818.458C156.17 819.974 156.094 822.172 154.805 823.613L154.88 823.688ZM159.582 806.404C158.824 806.404 158.066 806.101 157.686 805.57C158.521 804.433 160.644 804.433 161.478 805.57C161.099 806.177 160.341 806.404 159.582 806.404ZM165.194 788.361C164.815 789.499 163.601 790.332 162.312 790.712C161.478 790.257 161.175 789.12 161.63 788.361L161.933 788.058C160.947 787.224 162.085 785.481 163.45 785.632C164.815 785.784 165.649 787.224 165.27 788.361H165.194ZM169.062 791.091C169.062 791.091 168.607 791.091 168.379 790.939C167.014 790.332 167.241 788.513 168 787.376C168.834 786.239 170.047 785.177 170.047 783.889C170.578 784.723 171.033 785.556 171.488 786.39L170.957 786.618C171.488 788.361 170.654 791.091 169.062 791.091ZM188.248 745.454C186.655 753.413 183.243 760.919 179.83 768.348C178.692 770.85 177.555 773.351 176.342 775.853C175.735 777.217 174.218 778.734 172.853 778.734C172.474 778.734 172.095 778.582 171.716 778.279C170.73 777.293 171.564 775.777 172.398 774.716C177.631 767.666 180.664 759.478 183.622 751.367C184.683 748.41 185.821 745.378 186.883 742.421C188.172 742.497 188.399 744.165 188.172 745.378L188.248 745.454ZM193.329 734.158C192.722 733.476 192.039 732.642 192.267 731.808C192.494 730.974 194.163 730.747 194.314 731.58H194.163C194.542 732.49 194.163 733.627 193.253 734.158H193.329ZM196.134 721.725C195.452 721.725 194.845 721.498 194.39 721.119C193.101 719.906 193.784 717.556 195.604 717.101C197.424 716.646 199.319 718.465 198.864 720.057C198.561 721.119 197.348 721.725 196.134 721.725ZM199.092 711.415C198.713 711.415 198.334 711.264 198.258 710.885C198.334 710.127 199.85 710.202 199.926 710.885C199.926 711.264 199.471 711.415 199.092 711.415ZM208.95 689.961C208.268 695.647 205.007 701.029 200.078 704.592C200.912 701.636 201.746 698.755 202.58 695.799C205.235 686.626 207.889 677.377 210.467 668.204C210.619 667.598 210.922 666.915 211.605 666.84C211.756 672.904 210.771 678.893 208.647 684.655C207.965 686.398 207.358 688.672 208.875 689.961H208.95ZM214.411 654.558L214.107 655.013C213.046 653.042 214.335 650.389 216.686 649.783C217.899 651.526 216.61 654.104 214.411 654.558ZM220.705 88.7956C218.051 82.276 218.43 74.7709 221.842 68.4787C225.558 73.3305 219.188 80.0775 221.311 85.6874C223.662 91.9796 224.117 98.8023 222.601 105.246C219.871 101.077 219.112 95.9974 220.477 91.2973C220.705 90.4634 221.084 89.5536 220.705 88.7197V88.7956ZM221.994 108.809C225.255 112.675 226.165 118.058 224.345 122.682C221.084 118.816 220.174 113.433 221.994 108.809ZM222.221 620.52C221.311 619.914 220.932 618.852 221.311 617.943H221.236C221.387 617.109 223.056 617.336 223.283 618.17C223.511 619.004 222.904 619.838 222.221 620.52ZM226.013 599.749C224.952 597.777 223.814 595.806 222.752 593.911V593.608C223.89 592.243 226.696 593.229 227.227 594.821C227.757 596.489 226.923 598.157 226.013 599.749ZM227.909 580.872C227.302 580.19 226.62 579.356 226.847 578.522C227.075 577.688 228.743 577.461 228.895 578.295H228.819C229.198 579.204 228.819 580.341 227.909 580.872ZM229.729 193.336C229.274 191.668 228.364 190.076 227.075 188.864C227.909 187.802 230.032 187.802 230.791 188.939C231.322 190.455 230.942 192.199 229.805 193.336H229.729ZM229.805 570.562C228.44 569.122 228.44 566.772 229.805 565.255L229.957 565.028C230.791 565.255 231.701 565.559 232.535 565.862C231.625 567.454 230.715 568.97 229.805 570.486V570.562ZM231.777 556.689C230.487 555.931 230.487 553.96 231.777 553.278C233.066 554.036 233.066 555.931 231.777 556.689ZM236.251 527.654C235.417 532.885 234.583 538.116 233.748 543.347C231.701 536.372 232.459 528.715 235.796 522.12C236.858 523.788 236.554 525.759 236.251 527.654ZM239.436 382.783C238.829 382.101 238.147 381.267 238.374 380.433C238.602 379.599 240.27 379.296 240.422 380.206H240.27C240.649 381.115 240.27 382.252 239.36 382.783H239.436ZM239.436 427.586C240.725 428.344 240.725 430.24 239.436 430.998C238.147 430.24 238.147 428.344 239.436 427.586ZM239.436 420.763C240.27 420.763 240.27 422.204 239.436 422.204C238.602 422.204 238.602 420.839 239.436 420.763ZM239.436 418.792C239.436 418.792 238.981 418.944 238.829 418.944C237.237 418.944 235.948 416.291 237.692 415.533C239.588 414.699 241.408 417.958 239.512 418.792H239.436ZM237.54 436.153C239.512 436.986 237.54 440.322 235.72 439.412C233.824 438.579 235.72 435.319 237.616 436.153H237.54ZM236.63 502.41H236.554C236.933 503.395 236.554 504.532 235.568 505.063C234.734 503.85 234.128 502.334 234.81 501.045C235.493 499.756 237.995 499.377 238.526 500.742C237.919 501.273 237.313 501.879 236.63 502.486V502.41ZM235.644 270.282C237.237 275.058 237.237 280.138 235.644 284.914C234.052 280.138 234.052 275.058 235.644 270.282ZM237.54 493.085C238.374 493.085 238.374 494.45 237.54 494.526C236.782 494.526 236.706 493.085 237.54 493.085ZM238.45 450.026C238.981 448.282 238.678 446.387 237.616 444.871C237.009 443.961 236.099 443.051 236.554 442.066C237.085 440.929 239.057 441.08 239.967 442.066C240.801 443.051 240.801 444.34 240.801 445.553C240.801 447.372 240.346 449.571 238.45 450.101V450.026ZM239.588 406.966C238.45 405.753 238.071 404.01 238.602 402.493C238.071 400.901 238.45 399.158 239.663 397.945C240.953 400.75 240.953 404.085 239.663 406.89L239.588 406.966ZM239.436 374.444C238.374 370.35 238.071 366.181 238.602 362.011C239.663 361.784 240.27 362.997 240.422 363.982C240.877 367.47 240.573 371.108 239.436 374.444ZM237.161 358.448C236.175 353.9 236.251 349.124 237.313 344.575C238.374 346.925 239.739 349.2 240.043 351.777C240.422 354.279 239.512 357.16 237.085 358.448H237.161ZM237.464 315.465C239.284 316.678 238.981 319.71 236.933 320.62L236.706 319.786C236.327 318.345 236.554 316.753 237.464 315.465ZM238.753 311.598C238.753 311.598 238.45 311.598 238.298 311.598C236.782 311.598 236.175 308.793 237.919 308.642L238.829 311.068L238.678 311.598H238.753ZM236.858 293.101H236.63C234.734 293.101 234.279 290.069 236.099 289.614C236.099 291.281 237.009 292.949 238.526 294.011C238.071 294.92 236.175 293.935 236.858 293.101ZM236.858 256.94C237.161 258.532 237.388 260.427 236.023 261.564C235.72 261.792 235.341 261.868 234.962 261.868C233.597 261.868 232.08 260.579 233.142 259.669C234.962 258.001 234.886 255.272 234.052 253.074C233.218 250.875 231.701 248.828 231.094 246.554C231.018 246.251 230.942 245.872 231.094 245.569C231.397 244.583 232.99 244.507 233.824 245.19C234.658 245.872 234.886 246.933 235.113 247.919C235.72 250.951 236.327 253.983 236.858 256.94ZM233.748 241.399C233.142 240.717 232.459 239.883 232.687 239.049C232.914 238.215 234.583 237.912 234.734 238.822H234.583C234.962 239.731 234.583 240.869 233.673 241.399H233.748ZM233.748 227.602C232.383 224.797 231.549 221.765 231.397 218.656C232.08 219.794 232.687 220.931 233.369 222.068H233.066C235.113 223.129 235.493 226.086 233.748 227.526V227.602ZM232.838 200.462C233.142 204.48 232.838 208.498 232.08 212.44C231.246 210.242 230.336 208.119 229.502 205.921H228.895C229.729 204.556 228.819 202.812 228.743 201.145C228.743 199.477 230.639 197.506 232.08 198.567C232.687 199.022 232.838 199.78 232.838 200.538V200.462ZM230.791 180.221C231.246 181.055 230.867 182.117 230.032 182.647C227.302 181.586 226.165 178.099 227.833 175.9C229.577 176.734 230.791 178.402 231.018 180.145H230.715L230.791 180.221ZM230.032 165.59C231.322 167.106 231.322 169.381 230.032 170.821C229.122 170.29 228.667 169.153 229.047 168.243C228.667 167.258 229.047 166.121 230.032 165.59ZM228.819 155.659C225.331 150.352 224.648 143.985 224.042 137.92C224.042 137.617 224.042 137.313 224.042 137.01C224.269 136.328 225.331 136.025 226.013 136.479C226.544 136.858 226.696 137.541 226.772 138.147C227.454 143.985 228.137 149.822 228.819 155.659ZM235.72 39.8987C234.279 37.2454 232.838 34.5163 231.473 31.8629C231.549 30.9532 232.99 32.1662 232.838 33.0759L233.142 32.6969C235.189 34.0614 237.009 35.5776 238.678 37.3212C237.692 38.1551 236.706 39.0648 235.72 39.8987ZM245.654 48.541C242.469 46.5699 240.649 42.9311 241.18 39.5197L243 43.1585L242.469 43.4618C245.124 43.4618 246.944 46.5699 245.654 48.541ZM256.954 77.8033C255.665 77.0452 255.665 75.0741 256.954 74.3918C258.243 75.1499 258.243 77.0452 256.954 77.8033ZM273.486 103.73L273.258 103.503C273.258 103.503 273.031 103.578 272.879 103.578C272.045 103.578 271.438 102.062 272.5 101.835C273.106 102.896 274.092 103.806 275.306 104.336C275.002 105.322 272.803 104.488 273.486 103.654V103.73ZM283.951 113.813C283.117 113.813 283.117 112.372 283.951 112.372C284.785 112.372 284.785 113.737 283.951 113.813ZM295.554 157.403C292.065 151.641 291.913 144.515 288.425 138.754C286.378 135.342 283.117 131.249 285.619 128.065C288.577 134.584 291.534 141.104 294.492 147.623C295.933 150.807 297.374 154.446 295.629 157.479L295.554 157.403ZM298.511 162.255L298.284 162.027C298.284 162.027 298.056 162.103 297.904 162.103C297.07 162.103 296.464 160.587 297.449 160.359C298.056 161.496 299.042 162.33 300.255 162.861C300.028 163.847 297.753 163.013 298.435 162.179L298.511 162.255ZM301.317 169.911L301.165 169.987C301.014 169.987 300.938 169.76 300.938 169.532C300.938 169.305 300.938 169.077 301.317 169.077C301.924 169.077 302.227 169.835 302.227 170.442V170.594C305.564 171.2 307.156 175.445 305.033 177.72C302.834 175.521 301.544 172.716 301.393 169.76L301.317 169.911Z" fill="#90E77D"/>
</svg>
