<svg width="50" height="60" viewBox="0 0 50 60" fill="none" xmlns="http://www.w3.org/2000/svg">
<path d="M5.51572 7.53431C5.42139 4.1348 7.53203 1 10.385 1H39.6187C42.4716 1 44.5822 4.1348 44.4879 7.53431C44.3973 10.7999 44.5149 15.03 45.3633 18.4792C46.2144 21.939 47.6495 24.1259 50 24.4069V27.5931C47.6495 27.8741 46.2144 30.061 45.3633 33.5208C44.5149 36.97 44.3973 41.2001 44.4879 44.4658C44.5822 47.8652 42.4716 51 39.6187 51H10.385C7.53203 51 5.42139 47.8652 5.51582 44.4658C5.60635 41.2001 5.48867 36.97 4.64023 33.5208C3.78926 30.061 2.35059 27.8741 0 27.5931V24.4069C2.35049 24.1259 3.78926 21.939 4.64023 18.4792C5.48867 15.03 5.60635 10.7999 5.51572 7.53431Z" fill="url(#paint0_linear_116_124)"/>
<g filter="url(#filter0_d_116_124)">
<path d="M26.0842 39.2913C30.703 39.2913 33.4863 36.4533 33.4863 31.7723C33.4863 28.2339 31.5004 25.6723 28.5516 25.2667V25.1193C30.7181 24.677 32.4182 22.1523 32.4182 19.3327C32.4182 15.3152 29.8906 12.6981 26.0391 12.6981H17.373V39.2913H26.0842ZM20.7432 16.0707H25.2267C27.664 16.0707 29.048 17.4344 29.048 19.9039C29.048 22.5393 27.4383 24.0136 24.5195 24.0136H20.7432V16.0707ZM20.7432 35.9188V27.165H25.1965C28.386 27.165 30.041 28.6393 30.041 31.5143C30.041 34.3892 28.4312 35.9188 25.3921 35.9188H20.7432Z" fill="url(#paint1_linear_116_124)"/>
<path d="M26.0842 39.2913C30.703 39.2913 33.4863 36.4533 33.4863 31.7723C33.4863 28.2339 31.5004 25.6723 28.5516 25.2667V25.1193C30.7181 24.677 32.4182 22.1523 32.4182 19.3327C32.4182 15.3152 29.8906 12.6981 26.0391 12.6981H17.373V39.2913H26.0842ZM20.7432 16.0707H25.2267C27.664 16.0707 29.048 17.4344 29.048 19.9039C29.048 22.5393 27.4383 24.0136 24.5195 24.0136H20.7432V16.0707ZM20.7432 35.9188V27.165H25.1965C28.386 27.165 30.041 28.6393 30.041 31.5143C30.041 34.3892 28.4312 35.9188 25.3921 35.9188H20.7432Z" stroke="white"/>
</g>
<defs>
<filter id="filter0_d_116_124" x="0.873047" y="0.19812" width="49.1133" height="59.5931" filterUnits="userSpaceOnUse" color-interpolation-filters="sRGB">
<feFlood flood-opacity="0" result="BackgroundImageFix"/>
<feColorMatrix in="SourceAlpha" type="matrix" values="0 0 0 0 0 0 0 0 0 0 0 0 0 0 0 0 0 0 127 0" result="hardAlpha"/>
<feOffset dy="4"/>
<feGaussianBlur stdDeviation="8"/>
<feColorMatrix type="matrix" values="0 0 0 0 0 0 0 0 0 0 0 0 0 0 0 0 0 0 0.15 0"/>
<feBlend mode="normal" in2="BackgroundImageFix" result="effect1_dropShadow_116_124"/>
<feBlend mode="normal" in="SourceGraphic" in2="effect1_dropShadow_116_124" result="shape"/>
</filter>
<linearGradient id="paint0_linear_116_124" x1="7.42959" y1="2.32329" x2="58.2979" y2="34.5005" gradientUnits="userSpaceOnUse">
<stop stop-color="#9013FE"/>
<stop offset="1" stop-color="#6610F2"/>
</linearGradient>
<linearGradient id="paint1_linear_116_124" x1="18.8972" y1="14.4485" x2="32.2836" y2="32.4892" gradientUnits="userSpaceOnUse">
<stop stop-color="white"/>
<stop offset="1" stop-color="#F1E5FC"/>
</linearGradient>
</defs>
</svg>
