<svg width="50" height="50" viewBox="0 0 50 50" fill="none" xmlns="http://www.w3.org/2000/svg">
<path d="M50 0L45.4449 44.9948L24.9694 50L4.5503 45.0018L0 0H50Z" fill="#264DE4"/>
<path d="M25 46.1742L41.5452 42.1297L45.4378 3.67957H25V46.1742Z" fill="#2965F1"/>
<path d="M24.9997 20.3701H10.4312L10.9922 25.8893H24.9997V20.3701Z" fill="#EBEBEB"/>
<path d="M25 9.19897H24.9784H9.3042L9.87321 14.7183H25V9.19897Z" fill="#EBEBEB"/>
<path d="M11.2725 28.6491L12.1494 37.3152L24.9715 40.4538L25.0003 40.4467V34.7043L24.9729 34.7108L18.0016 33.051L17.556 28.6491H14.1685H11.2725Z" fill="#EBEBEB"/>
<path d="M32.6864 25.8894L31.9598 33.0475L24.9785 34.709V40.4511L37.8108 37.3152L37.9049 36.3827L39.3758 21.8522L39.5286 20.3702L40.6586 9.19897H24.9785V14.7183H33.7988L33.2292 20.3702H24.9785V25.8894H32.6864Z" fill="white"/>
</svg>
