<svg width="34" height="50" viewBox="0 0 34 50" fill="none" xmlns="http://www.w3.org/2000/svg">
<path d="M8.33333 50C10.5435 50 12.6631 49.1221 14.2259 47.5593C15.7887 45.9965 16.6667 43.8768 16.6667 41.6667V33.3334H8.33333C6.1232 33.3334 4.00358 34.2113 2.44078 35.7742C0.877974 37.337 0 39.4566 0 41.6667C0 43.8768 0.877974 45.9965 2.44078 47.5593C4.00358 49.1221 6.1232 50 8.33333 50Z" fill="#0ACF83"/>
<path d="M0 25C0 22.7898 0.877974 20.6702 2.44078 19.1074C4.00358 17.5446 6.1232 16.6666 8.33333 16.6666H16.6667V33.3333H8.33333C6.1232 33.3333 4.00358 32.4553 2.44078 30.8925C0.877974 29.3297 0 27.2101 0 25Z" fill="#A259FF"/>
<path d="M0 8.33333C-6.74136e-07 6.12432 0.877079 4.00569 2.43847 2.44308C3.99987 0.880461 6.11781 0.00172579 8.32682 0L16.6602 0V16.6667H8.33333C6.1232 16.6667 4.00358 15.7887 2.44078 14.2259C0.877974 12.6631 0 10.5435 0 8.33333Z" fill="#F24E1E"/>
<path d="M16.6665 0H24.9998C27.21 0 29.3296 0.877974 30.8924 2.44078C32.4552 4.00358 33.3332 6.1232 33.3332 8.33333C33.3332 10.5435 32.4552 12.6631 30.8924 14.2259C29.3296 15.7887 27.21 16.6667 24.9998 16.6667H16.6665V0Z" fill="#FF7262"/>
<path d="M33.3332 25C33.3332 27.2101 32.4552 29.3297 30.8924 30.8925C29.3296 32.4553 27.21 33.3333 24.9998 33.3333C22.7897 33.3333 20.6701 32.4553 19.1073 30.8925C17.5445 29.3297 16.6665 27.2101 16.6665 25C16.6665 22.7898 17.5445 20.6702 19.1073 19.1074C20.6701 17.5446 22.7897 16.6666 24.9998 16.6666C27.21 16.6666 29.3296 17.5446 30.8924 19.1074C32.4552 20.6702 33.3332 22.7898 33.3332 25Z" fill="#1ABCFE"/>
</svg>
