<svg width="51" height="50" viewBox="0 0 51 50" fill="none" xmlns="http://www.w3.org/2000/svg">
<path d="M49.0582 22.773L27.2285 0.943313C26.9296 0.644256 26.5747 0.407022 26.184 0.245165C25.7934 0.0833082 25.3747 0 24.9519 0C24.5291 0 24.1104 0.0833082 23.7198 0.245165C23.3292 0.407022 22.9743 0.644256 22.6753 0.943313L18.1441 5.47456L23.8941 11.2246C25.2316 10.7558 26.7628 11.0761 27.8285 12.1418C28.3357 12.6499 28.6899 13.2905 28.8504 13.9904C29.0109 14.6902 28.9714 15.4211 28.7363 16.0996L34.2785 21.6418C35.6191 21.1793 37.166 21.4777 38.2363 22.5511C38.5921 22.907 38.8743 23.3295 39.0668 23.7945C39.2593 24.2595 39.3584 24.7578 39.3583 25.2611C39.3582 25.7643 39.259 26.2626 39.0664 26.7275C38.8737 27.1924 38.5914 27.6149 38.2355 27.9707C37.8796 28.3265 37.4571 28.6087 36.9921 28.8012C36.5272 28.9937 36.0288 29.0928 35.5256 29.0927C35.0223 29.0926 34.524 28.9934 34.0591 28.8008C33.5942 28.6081 33.1718 28.3258 32.816 27.9699C31.691 26.8449 31.4128 25.1886 31.9816 23.8027L26.8128 18.6339V32.2355C27.188 32.4212 27.531 32.666 27.8285 32.9605C28.1843 33.3163 28.4665 33.7387 28.6591 34.2036C28.8516 34.6684 28.9507 35.1667 28.9507 35.6699C28.9507 36.1731 28.8516 36.6713 28.6591 37.1362C28.4665 37.6011 28.1843 38.0234 27.8285 38.3792C27.4727 38.7351 27.0503 39.0173 26.5854 39.2098C26.1205 39.4024 25.6223 39.5015 25.1191 39.5015C24.6159 39.5015 24.1177 39.4024 23.6528 39.2098C23.1879 39.0173 22.7655 38.7351 22.4097 38.3792C22.0535 38.0237 21.7709 37.6014 21.5781 37.1365C21.3853 36.6715 21.286 36.1732 21.286 35.6699C21.286 35.1666 21.3853 34.6682 21.5781 34.2033C21.7709 33.7384 22.0535 33.3161 22.4097 32.9605C22.78 32.5917 23.191 32.3121 23.6644 32.1246V18.3964C23.2082 18.2089 22.78 17.9324 22.4097 17.5605C21.8717 17.0231 21.5059 16.3377 21.359 15.5917C21.2121 14.8456 21.2906 14.0727 21.5847 13.3714L15.9128 7.70269L0.944095 22.6558C0.644803 22.9548 0.407372 23.3098 0.245377 23.7005C0.0833815 24.0913 0 24.5101 0 24.9332C0 25.3562 0.0833815 25.775 0.245377 26.1658C0.407372 26.5566 0.644803 26.9116 0.944095 27.2105L22.7753 49.0386C23.0743 49.3377 23.4292 49.5749 23.8198 49.7368C24.2104 49.8986 24.6291 49.9819 25.0519 49.9819C25.4747 49.9819 25.8934 49.8986 26.284 49.7368C26.6747 49.5749 27.0296 49.3377 27.3285 49.0386L49.0582 27.3433C49.3574 27.0444 49.5949 26.6894 49.7569 26.2986C49.9189 25.9078 50.0023 25.489 50.0023 25.066C50.0023 24.643 49.9189 24.2241 49.7569 23.8333C49.5949 23.4426 49.3574 23.0876 49.0582 22.7886" fill="#F03C2E"/>
</svg>
