<svg width="50" height="50" viewBox="0 0 50 50" fill="none" xmlns="http://www.w3.org/2000/svg">
<path d="M42.5 0H7.5C3.35786 0 0 3.35786 0 7.5V42.5C0 46.6421 3.35786 50 7.5 50H42.5C46.6421 50 50 46.6421 50 42.5V7.5C50 3.35786 46.6421 0 42.5 0Z" fill="#171515"/>
<path d="M11.6213 24.9024C13.2815 27.8321 16.4065 29.5899 21.5822 30.0782C20.801 30.6641 19.9221 31.7383 19.8244 33.0079C18.8479 33.5938 16.9924 33.7891 15.5276 33.3008C13.4768 32.6172 12.6955 28.6133 9.57053 29.1993C8.88693 29.2969 8.98459 29.7852 9.57053 30.1758C10.5471 30.7618 11.6213 31.7383 12.1096 33.1055C13.2815 36.1329 15.7229 36.9141 19.6291 36.3282V40.7227C19.6291 42.0899 17.676 42.4805 17.676 43.1641C17.676 43.4571 18.3596 43.4571 18.8479 43.4571C19.8244 43.4571 21.9729 42.5782 21.9729 41.211C21.9729 40.0391 21.9729 36.1329 22.0705 35.4493C22.0705 33.9844 22.8518 33.4961 22.8518 33.4961C22.8518 33.4961 22.9494 41.504 22.6565 42.4805C22.2658 43.75 21.6799 43.5547 21.6799 44.1407C21.6799 45.0196 24.219 44.336 25.0979 42.4805C25.7815 41.0157 25.4885 33.2032 25.3908 33.3008H26.0744C26.0744 33.3008 26.0744 36.9141 26.1721 38.4766C26.1721 40.1368 26.0744 42.2852 27.051 43.3594C27.7346 44.043 29.883 45.2149 29.883 44.1407C29.883 43.5547 28.7112 42.9688 28.7112 41.3086V33.5938C29.6877 33.5938 29.4924 36.1329 29.4924 36.1329L29.5901 40.8204C29.5901 40.8204 29.3947 42.5782 31.4455 43.2618C32.2268 43.5547 33.7893 43.5547 33.8869 43.1641C33.9846 42.7735 31.9338 42.0899 31.9338 40.7227V35.9375C31.9338 32.4219 31.4455 31.1524 29.7854 30.0782C34.9612 29.5899 38.1838 28.3204 39.7463 24.9024C40.7229 22.9493 40.9182 20.6055 40.9182 18.8477C40.9182 13.9649 38.5744 12.3047 38.0862 11.4258C38.7697 7.71489 37.9885 6.05473 37.5979 5.56645C36.2307 5.07817 32.9104 6.73833 31.1526 7.9102C28.2229 7.0313 21.9729 7.12895 19.6291 8.10552C15.3322 5.07817 13.0862 5.56645 13.0862 5.56645C13.0862 5.56645 11.6213 8.20317 12.6955 12.0118C11.2307 13.7696 10.2541 15.0391 10.1565 18.3594C10.1565 20.9961 10.4494 22.6563 11.6213 24.9024Z" fill="white"/>
</svg>
