<svg width="160" height="47" viewBox="0 0 160 47" fill="none" xmlns="http://www.w3.org/2000/svg">
<path d="M19.541 27.6387C19.541 28.791 19.2383 29.7676 18.6328 30.5684C18.0273 31.3496 17.2656 31.9844 16.3477 32.4727C15.4297 32.9609 14.4336 33.3125 13.3594 33.5273C12.2852 33.7617 11.2793 33.8789 10.3418 33.8789C9.16992 33.8789 7.98828 33.6934 6.79688 33.3223C5.625 32.9707 4.56055 32.4531 3.60352 31.7695L1.28906 36.4863L2.34375 25.5586C2.59766 26.4375 2.96875 27.2383 3.45703 27.9609C3.96484 28.6641 4.55078 29.2695 5.21484 29.7773C5.87891 30.2852 6.61133 30.6758 7.41211 30.9492C8.23242 31.2227 9.10156 31.3594 10.0195 31.3594C10.3516 31.3594 10.7422 31.3301 11.1914 31.2715C11.6602 31.1934 12.0996 31.0664 12.5098 30.8906C12.9395 30.7148 13.3008 30.4805 13.5938 30.1875C13.8867 29.8945 14.0332 29.5332 14.0332 29.1035C14.0332 28.5566 13.8086 28.0781 13.3594 27.668C12.9297 27.2578 12.4121 26.916 11.8066 26.6426C11.2012 26.3496 10.5762 26.1152 9.93164 25.9395C9.28711 25.7637 8.76953 25.6367 8.37891 25.5586C7.57813 25.4023 6.70898 25.1875 5.77148 24.9141C4.83398 24.6406 3.95508 24.2793 3.13477 23.8301C2.33398 23.3613 1.66016 22.7852 1.11328 22.1016C0.566406 21.3984 0.292969 20.5391 0.292969 19.5234C0.292969 18.3516 0.566406 17.375 1.11328 16.5938C1.66016 15.793 2.35352 15.1582 3.19336 14.6895C4.05273 14.2207 4.99023 13.8887 6.00586 13.6934C7.04102 13.498 8.04688 13.4004 9.02344 13.4004C10.4297 13.4004 11.6895 13.5664 12.8027 13.8984C13.916 14.2305 15.0879 14.7383 16.3184 15.4219L19.248 11.8477L18.1641 21.4863C17.6758 20.7051 17.0996 19.9727 16.4355 19.2891C15.791 18.6055 15.0781 18.0098 14.2969 17.502C13.5156 16.9746 12.6758 16.5645 11.7773 16.2715C10.8984 15.959 9.99023 15.8027 9.05273 15.8027C8.7207 15.8027 8.33008 15.8516 7.88086 15.9492C7.45117 16.0273 7.03125 16.1641 6.62109 16.3594C6.21094 16.5352 5.85938 16.7695 5.56641 17.0625C5.29297 17.3555 5.15625 17.7168 5.15625 18.1465C5.15625 18.5566 5.32227 18.9082 5.6543 19.2012C6.00586 19.4746 6.41602 19.709 6.88477 19.9043C7.37305 20.0801 7.86133 20.2266 8.34961 20.3438C8.83789 20.4609 9.22852 20.5488 9.52148 20.6074C10.4004 20.8027 11.416 21.0664 12.5684 21.3984C13.7207 21.7305 14.8145 22.1699 15.8496 22.7168C16.8848 23.2637 17.7539 23.9375 18.457 24.7383C19.1797 25.5391 19.541 26.5059 19.541 27.6387ZM35.918 12.5215L29.6191 15.0996L29.1211 33.0586L35.6543 35.6074H18.4277L24.873 33.0586L24.1699 15.2754L17.1387 12.3164L35.918 12.5215ZM59.8242 22.9219L54.3457 25.3242L55.166 34.2012L51.9434 31.3008C51.4746 31.8672 50.918 32.3359 50.2734 32.707C49.6484 33.0781 48.9746 33.3711 48.252 33.5859C47.5488 33.8008 46.8262 33.957 46.084 34.0547C45.3418 34.1523 44.6191 34.2012 43.916 34.2012C42.2754 34.2012 40.7715 33.9277 39.4043 33.3809C38.0566 32.834 36.8945 32.0723 35.918 31.0957C34.9609 30.0996 34.209 28.918 33.6621 27.5508C33.1348 26.1836 32.8711 24.6895 32.8711 23.0684C32.8906 21.2324 33.2324 19.6406 33.8965 18.293C34.5605 16.9453 35.4492 15.8223 36.5625 14.9238C37.6758 14.0254 38.9746 13.3613 40.459 12.9316C41.9629 12.4824 43.5645 12.2578 45.2637 12.2578C46.1816 12.2578 47.1387 12.4043 48.1348 12.6973C49.1309 12.9707 50.0098 13.3418 50.7715 13.8105L54.5801 10.1191L53.5547 22.541L52.3242 20.2266C51.9922 19.6016 51.5918 19.0059 51.123 18.4395C50.6543 17.8535 50.127 17.3457 49.541 16.916C48.9746 16.4668 48.3594 16.1152 47.6953 15.8613C47.0312 15.6074 46.3379 15.4805 45.6152 15.4805C44.4434 15.4805 43.4277 15.6953 42.5684 16.125C41.709 16.5352 40.9863 17.1016 40.4004 17.8242C39.834 18.5469 39.4043 19.3867 39.1113 20.3438C38.8379 21.2812 38.7012 22.2871 38.7012 23.3613C38.7012 24.3379 38.8379 25.3047 39.1113 26.2617C39.4043 27.2188 39.8242 28.0781 40.3711 28.8398C40.918 29.582 41.6016 30.1875 42.4219 30.6562C43.2422 31.125 44.1992 31.3594 45.293 31.3594C46.6992 31.3594 47.8125 31.0078 48.6328 30.3047C49.4531 29.6016 49.8633 28.5371 49.8633 27.1113C49.8633 26.8574 49.8535 26.6035 49.834 26.3496C49.8145 26.0957 49.7852 25.8516 49.7461 25.6172L42.5684 22.8633L59.8242 22.9219ZM85.6641 11.1445L79.1895 14.25L78.7793 34.582L64.5996 18.0586L64.9219 29.3672L74.2969 32.8535L54.4336 32.7656L61.7578 29.4551V14.9824L54.668 11.7012L66.7969 11.877L76.3477 23.7422L76.2598 14.6895L68.3789 11.4668L85.6641 11.1445Z" fill="white"/>
<path d="M88.8574 33.1172C88.8574 33.5273 88.7695 33.8887 88.5938 34.2012C88.418 34.5137 88.1836 34.7676 87.8906 34.9629C87.6172 35.1777 87.2949 35.334 86.9238 35.4316C86.5723 35.5488 86.2109 35.6074 85.8398 35.6074C85.4883 35.6074 85.1172 35.5586 84.7266 35.4609C84.3555 35.3633 84.0137 35.207 83.7012 34.9922C83.3887 34.7969 83.1348 34.543 82.9395 34.2305C82.7441 33.9375 82.6465 33.5859 82.6465 33.1758C82.6465 32.7461 82.7344 32.3652 82.9102 32.0332C83.1055 31.7012 83.3496 31.4277 83.6426 31.2129C83.9551 30.9785 84.2969 30.8027 84.668 30.6855C85.0391 30.5684 85.4199 30.5098 85.8105 30.5098C86.1621 30.5098 86.5137 30.5781 86.8652 30.7148C87.2363 30.832 87.5684 31.0078 87.8613 31.2422C88.1543 31.4766 88.3887 31.7598 88.5645 32.0918C88.7598 32.4043 88.8574 32.7461 88.8574 33.1172ZM96.8408 26.6719V18.2344C96.8408 18.2344 98.7891 18.2344 102.686 18.2344C103.77 18.2344 104.697 18.6445 105.469 19.4648C106.25 20.2852 106.641 21.2715 106.641 22.4238C106.641 23.6152 106.255 24.6211 105.483 25.4414C104.712 26.2617 103.779 26.6719 102.686 26.6719H96.8408ZM97.8955 25.6172H102.686C103.477 25.6172 104.15 25.3096 104.707 24.6943C105.273 24.0791 105.557 23.3223 105.557 22.4238C105.557 21.5645 105.273 20.8271 104.707 20.2119C104.15 19.5967 103.477 19.2891 102.686 19.2891H97.8955V25.6172ZM95.7861 27.7266H102.686C104.072 27.7266 105.259 27.2139 106.245 26.1885C107.231 25.1533 107.725 23.8984 107.725 22.4238C107.725 20.9785 107.227 19.7432 106.23 18.7178C105.244 17.6924 104.062 17.1797 102.686 17.1797H95.7861V27.7266ZM94.7314 28.7812V16.125H102.686C104.355 16.125 105.791 16.7451 106.992 17.9854C108.203 19.2158 108.809 20.6953 108.809 22.4238C108.809 24.1914 108.208 25.6953 107.007 26.9355C105.806 28.166 104.365 28.7812 102.686 28.7812H94.7314ZM93.6768 29.8359H102.686C103.975 29.8359 105.171 29.5088 106.274 28.8545C107.378 28.2002 108.257 27.3018 108.911 26.1592C109.565 25.0166 109.893 23.7715 109.893 22.4238C109.893 21.1055 109.565 19.8799 108.911 18.7471C108.257 17.6143 107.373 16.7207 106.26 16.0664C105.156 15.4023 103.965 15.0703 102.686 15.0703H93.6768V29.8359ZM92.6221 30.8906V14.0156H102.686C104.16 14.0156 105.532 14.3916 106.802 15.1436C108.081 15.8955 109.097 16.9209 109.849 18.2197C110.601 19.5088 110.977 20.9102 110.977 22.4238C110.977 23.957 110.601 25.3779 109.849 26.6865C109.097 27.9854 108.081 29.0107 106.802 29.7627C105.532 30.5146 104.16 30.8906 102.686 30.8906H92.6221ZM91.5674 31.9453H102.686C104.355 31.9453 105.908 31.5254 107.344 30.6855C108.779 29.8359 109.922 28.6787 110.771 27.2139C111.631 25.749 112.061 24.1523 112.061 22.4238C112.061 20.7246 111.631 19.1475 110.771 17.6924C109.922 16.2275 108.774 15.0752 107.329 14.2354C105.894 13.3857 104.346 12.9609 102.686 12.9609H91.5674V31.9453ZM102.686 33H90.5127V11.9062H102.686C104.541 11.9062 106.27 12.3799 107.871 13.3271C109.482 14.2646 110.762 15.5439 111.709 17.165C112.666 18.7764 113.145 20.5293 113.145 22.4238C113.145 23.8594 112.861 25.2314 112.295 26.54C111.738 27.8486 110.986 28.9766 110.039 29.9238C109.102 30.8613 107.988 31.6084 106.699 32.165C105.41 32.7217 104.072 33 102.686 33ZM120.776 33H119.722V11.9062H120.776V33ZM118.667 33H117.612V11.9062H118.667V33ZM116.558 33H115.503V11.9062H116.558V33ZM122.886 27.7266H132.979V28.7812H122.886V29.8359H132.979V30.8906H122.886V31.9453H132.979V33H121.831V11.9062H132.979V12.9609H122.886V14.0156H132.979V15.0703H122.886V16.125H132.979V17.1797H122.886V19.8018H132.393V20.8564H122.886V21.9111H132.393V22.9658H122.886V24.0205H132.393V25.0752H122.886V27.7266ZM134.678 11.9062H135.82L143.599 31.5791L151.377 11.9062H152.505L144.17 33H143.027L134.678 11.9062ZM136.948 11.9062H138.076L144.331 27.7266L143.73 29.0742L136.948 11.9062ZM139.219 11.9062H140.361L145.459 24.8408L144.902 26.291L139.219 11.9062ZM141.489 11.9062H142.617L146.572 21.9111L146.016 23.3906L141.489 11.9062ZM158.174 11.9062H159.316L150.967 33H149.839L158.174 11.9062ZM155.918 11.9062H157.046L148.696 33H147.568L155.918 11.9062ZM153.633 11.9062H154.775L146.426 33H145.298L153.633 11.9062Z" fill="#90E77D"/>
<path d="M0 25.5H82.3535V26.9941H0V25.5Z" fill="white"/>
<path d="M82.3535 25.5H89.1504V26.9941H82.3535V25.5Z" fill="#90E77D"/>
<path d="M89.1504 20.3438H159.814V21.0762H89.1504V20.3438Z" fill="#90E77D"/>
</svg>
