<svg width="50" height="50" viewBox="0 0 50 50" fill="none" xmlns="http://www.w3.org/2000/svg">
<path d="M11.7979 13.0339H21.2283V14.2758H12.6623V23.6219H20.7176V24.8637H12.6623V35.1249H21.3266V36.3666H11.7979V13.0339ZM22.0732 13.0339H23.0752L27.5153 23.2951L32.0537 13.0338L38.2267 0L28.0851 24.3736L33.3111 36.3666H32.2698L27.5153 25.4519L22.7411 36.3666H21.7195L26.9849 24.3735L22.0732 13.0339ZM33.6844 14.2758V13.0338H44.4313V14.2757H39.4802V36.3664H38.6157V14.2758H33.6844ZM0 13.0338H1.08057L15.981 49.9741L9.82344 36.3664L0.903711 14.7986L0.864453 36.3668H0L0 13.0338ZM44.3441 34.7498C44.1675 34.7498 44.0351 34.5233 44.0351 34.2302C44.0351 33.9373 44.1675 33.7105 44.3441 33.7105C44.5229 33.7105 44.6532 33.9372 44.6532 34.2302C44.6532 34.5232 44.5229 34.7498 44.3441 34.7498ZM45.1936 33.3827H45.6562C45.6624 33.7977 45.8453 34.0768 46.1145 34.0768C46.4151 34.0768 46.5854 33.7768 46.5854 33.2153V29.6575H47.0564V33.2187C47.0564 34.2302 46.7032 34.8128 46.1187 34.8128C45.5698 34.8128 45.1936 34.2476 45.1936 33.3825V33.3827ZM47.6725 33.3374H48.1393C48.1792 33.8152 48.4609 34.1185 48.8668 34.1185C49.2452 34.1185 49.5228 33.7941 49.5228 33.3478C49.5228 32.9642 49.3461 32.7339 48.9445 32.577L48.5534 32.4201C48.0046 32.2071 47.7545 31.7677 47.7545 31.0283C47.7545 30.132 48.196 29.5355 48.8583 29.5355C49.4743 29.5355 49.9243 30.1319 49.9517 30.9795H49.4933C49.4491 30.5156 49.2052 30.226 48.852 30.226C48.4799 30.226 48.2318 30.5226 48.2318 30.9759C48.2318 31.3351 48.3915 31.5411 48.7868 31.6944L49.1211 31.8305C49.7435 32.0712 50 32.4898 50 33.2466C50 34.2093 49.5501 34.8128 48.8311 34.8128C48.1582 34.8128 47.7061 34.2371 47.6725 33.3372V33.3374Z" fill="black"/>
</svg>
