<svg width="50" height="50" viewBox="0 0 50 50" fill="none" xmlns="http://www.w3.org/2000/svg">
<path d="M43.0386 28.7114C41.2906 28.7246 39.7769 29.2847 38.5074 30.1187C38.0386 28.8809 37.5699 27.7994 37.4919 26.9917C37.404 26.0535 37.2966 25.4801 37.404 24.3597C37.5113 23.2391 37.9996 21.6495 37.9996 21.5192C37.9897 21.4019 37.8921 20.8286 36.8863 20.8156C35.8805 20.8026 35.0113 21.0762 34.9136 21.428C34.816 21.7798 34.6207 22.5876 34.4937 23.4215C34.3179 24.6462 32.482 28.985 31.4371 31.2652C31.0953 30.3792 30.8023 29.5974 30.7436 28.9719C30.6558 28.0339 30.5483 27.4605 30.6558 26.3401C30.7632 25.2194 31.2515 23.63 31.2515 23.4997C31.2418 23.3824 31.1441 22.8091 30.1383 22.7961C29.1324 22.783 28.2633 23.0567 28.1657 23.4085C28.068 23.7603 27.9606 24.5941 27.7458 25.4019C27.5406 26.2098 25.0992 33.4541 24.4644 35.3433C24.1422 36.3075 23.8591 37.0763 23.6539 37.5974C23.4488 38.1186 23.6441 37.6365 23.6246 37.6886C23.4488 38.1316 23.3511 38.3792 23.3511 38.3792V38.3923C23.2144 38.7181 23.0679 39.0307 22.9995 39.0307C22.9507 39.0307 22.853 38.1577 23.019 36.9591C23.3803 34.4443 24.2592 30.5226 24.2496 30.3793C24.2496 30.3141 24.4155 29.6235 23.6831 29.2718C22.9702 28.92 22.7164 29.5063 22.6577 29.5063C22.5991 29.5063 22.5503 29.7148 22.5503 29.7148C22.5503 29.7148 23.3413 25.298 21.0366 25.298C19.5913 25.298 17.5991 27.3957 16.6128 29.311C15.9878 29.767 14.6596 30.7311 13.2534 31.7605C12.7163 32.1514 12.1596 32.5684 11.6323 32.9462L11.525 32.7896C8.732 28.8156 3.56598 26.0013 3.78083 20.6593C3.85895 18.7179 4.36676 13.5974 13.7028 7.39538C21.3493 2.31393 27.4723 3.70808 28.5367 6.80906C30.0504 11.239 25.2652 19.4736 17.3161 20.6593C14.2887 21.1153 12.6968 19.5518 12.2965 18.9654C11.8766 18.3531 11.818 18.327 11.6618 18.4443C11.4079 18.6267 11.5641 19.1739 11.6618 19.4997C11.8962 20.3205 12.8727 21.7798 14.5329 22.5094C15.9879 23.1479 19.5426 23.4997 23.8395 21.2847C28.654 18.7961 32.4137 11.8905 31.3102 6.11851C30.1872 0.242267 22.8825 -1.68608 15.9782 1.58429C11.8668 3.53869 7.41364 6.58756 4.21051 10.5876C0.40192 15.3303 -0.203548 19.4736 0.0503579 21.1935C0.939127 27.3303 7.27692 31.3303 9.81598 34.288C9.68903 34.379 9.57184 34.4703 9.46442 34.5486C8.19489 35.3823 3.3609 38.757 2.14997 42.327C0.78278 46.3661 2.36481 49.2717 3.4195 49.6626C6.68122 50.8743 10.0211 48.6984 11.8277 45.1154C13.6245 41.5323 13.4097 36.8808 12.5797 34.757L12.5503 34.6789L13.5464 33.8971C14.191 33.3889 14.8257 32.9199 15.3823 32.5158C15.0699 33.6494 14.8452 34.9914 14.7281 36.9458C14.5914 39.2391 15.2945 42.2097 16.2222 43.3823C16.6324 43.8903 17.1207 43.9035 17.4234 43.9035C18.4976 43.9035 18.9859 42.7177 19.523 41.2976C20.1871 39.5647 20.773 37.5582 20.773 37.5582C20.773 37.5582 20.0406 42.9915 22.0425 42.9915C22.775 42.9915 23.5074 41.7276 23.8394 41.0761V41.0892C23.8394 41.0892 23.859 41.0501 23.898 40.9589C23.939 40.878 23.9781 40.7955 24.0152 40.7114V40.6854C24.3082 40.0079 24.9625 38.4574 25.939 35.8906C27.1987 32.5811 28.4097 28.4378 28.4097 28.4378C28.4097 28.4378 28.5269 29.4541 28.8883 31.1218C29.103 32.1122 29.5717 33.1935 29.9331 34.2489C29.6401 34.7961 29.4643 35.109 29.4643 35.109L29.4741 35.122C29.2398 35.5389 28.976 35.982 28.7027 36.4249C27.7066 38.0145 26.5152 39.8257 26.359 40.3469C26.1734 40.9591 26.2125 41.4152 26.5738 41.7801C26.8375 42.0407 27.3062 42.0927 27.8043 42.0407C28.7027 41.9624 29.3277 41.6628 29.6402 41.4803C30.1285 41.2458 30.6851 40.894 31.2222 40.3728C32.1988 39.4088 32.7945 38.0407 32.7359 36.2166C32.7066 35.2133 32.4625 34.2231 32.1597 33.285C32.2476 33.1156 32.3356 32.9461 32.4234 32.7638C33.9664 29.7539 35.1578 26.4446 35.1578 26.4446C35.1578 26.4446 35.275 27.4608 35.6363 29.1286C35.8217 29.9755 36.1929 30.9007 36.525 31.8128C35.0797 33.3893 34.1715 35.2134 33.859 36.4121C33.2828 38.6271 33.732 39.6304 34.5816 39.8649C34.9624 39.9692 35.5093 39.7346 35.9194 39.5001C36.4272 39.2786 37.0424 38.9006 37.609 38.3405C38.5855 37.3763 39.523 36.0343 39.4742 34.2232C39.4449 33.3893 39.2789 32.5685 39.0543 31.7867C40.2847 31.1092 41.8764 30.7183 43.898 31.0441C48.2437 31.7216 49.1031 35.3437 48.9372 36.8551C48.7712 38.3667 47.863 39.2004 47.5601 39.461C47.2574 39.7086 47.1597 39.7999 47.189 39.9822C47.2281 40.2559 47.3648 40.2428 47.6285 40.1908C47.9898 40.1125 49.9136 38.953 49.9918 36.1648C50.109 32.5813 47.5601 28.6724 43.0386 28.7114ZM9.52302 43.7864C8.08747 45.8841 6.06598 46.6789 5.20661 46.0014C4.27887 45.2847 4.6401 42.1968 6.40778 39.9688C7.482 38.6137 8.87848 37.3629 9.79645 36.5942C10.0015 36.4248 10.314 36.1774 10.6851 35.8776C10.7437 35.8256 10.7828 35.7994 10.7828 35.7994C10.8511 35.7473 10.9293 35.6821 11.0074 35.617C11.6617 38.7961 11.0367 41.5844 9.52302 43.7864ZM20.0211 34.2619C19.523 35.8906 18.4683 40.073 17.8336 39.8385C17.2866 39.643 16.9547 36.4769 17.726 33.3499C18.1167 31.7732 18.9467 29.8971 19.435 29.1673C20.2261 27.9947 21.0854 27.6038 21.3004 28.0859C21.5543 28.7114 20.3336 33.2456 20.0211 34.2619ZM28.6832 39.7864C28.4683 39.9298 28.273 40.0339 28.1851 39.9559C28.1168 39.9038 28.2729 39.7083 28.2729 39.7083C28.2729 39.7083 29.3569 38.1578 29.7866 37.4412C30.0307 37.0244 30.3237 36.5423 30.6362 35.9949V36.1513C30.6363 38.0274 29.2886 39.2782 28.6832 39.7864ZM35.3628 37.7538C35.2065 37.5974 35.2261 37.1153 35.7534 35.6039C35.9586 35.0046 36.4272 34.0013 37.2378 33.0502C37.3354 33.4411 37.3941 33.8188 37.3842 34.1707C37.3746 36.516 36.1246 37.389 35.3628 37.7538Z" fill="#CF649A"/>
</svg>
