<svg width="50" height="50" viewBox="0 0 50 50" fill="none" xmlns="http://www.w3.org/2000/svg">
<path d="M25 0C18.3334 0 14.1666 5.55566 12.5 16.6667C15 11.111 17.9166 9.02767 21.25 10.4167C23.1518 11.209 24.5111 13.5088 26.0158 16.054C28.467 20.2008 31.3037 25 37.5 25C44.1666 25 48.3334 19.4443 50 8.33333C47.5 13.889 44.5834 15.9723 41.25 14.5833C39.3482 13.791 37.9889 11.4912 36.4842 8.94596C34.033 4.79915 31.1963 0 25 0ZM12.5 25C5.8334 25 1.6666 30.5557 0 41.6667C2.5 36.111 5.4166 34.0277 8.75 35.4167C10.6518 36.209 12.0111 38.5088 13.5158 41.054C15.967 45.2008 18.8037 50 25 50C31.6666 50 35.8334 44.4443 37.5 33.3333C35 38.889 32.0834 40.9723 28.75 39.5833C26.8482 38.791 25.4889 36.4912 23.9842 33.946C21.533 29.7992 18.6963 25 12.5 25Z" fill="url(#paint0_linear_116_127)"/>
<defs>
<linearGradient id="paint0_linear_116_127" x1="-355.584" y1="2457.6" x2="50" y2="5188.3" gradientUnits="userSpaceOnUse">
<stop stop-color="#2298BD"/>
<stop offset="1" stop-color="#0ED7B5"/>
</linearGradient>
</defs>
</svg>
